<svg width="1200" height="630" viewBox="0 0 1200 630" fill="none" xmlns="http://www.w3.org/2000/svg">
  <defs>
    <linearGradient id="ogpGrad1" x1="0%" y1="0%" x2="100%" y2="100%">
      <stop offset="0%" style="stop-color:#EFF6FF; stop-opacity:1" />
      <stop offset="100%" style="stop-color:#DBEAFE; stop-opacity:1" />
    </linearGradient>
  </defs>
  <rect width="1200" height="630" fill="url(#ogpGrad1)"/>
  <path d="M300 200 Q250 200 230 250 C200 250 170 280 170 320 C170 360 200 390 230 390 L400 390 Q450 390 470 340 Q490 290 450 270 C440 230 400 200 350 200 A100 100 0 0 0 300 200 Z" fill="#A5F3FC" opacity="0.6" transform="translate(50, 30) scale(1)"/>
  <path d="M370 270 Q330 270 310 310 C280 310 250 340 250 380 C250 420 280 450 310 450 L480 450 Q530 450 550 400 Q570 350 530 330 C520 290 480 260 430 260 A90 90 0 0 0 370 270 Z" fill="#67E8F9" opacity="0.7" transform="translate(20, 60) scale(0.95)" />
  <circle cx="950" cy="200" r="16" fill="#38BDF8" opacity="0.7"/>
  <circle cx="1030" cy="260" r="22" fill="#0EA5E9" opacity="0.7"/>
  <circle cx="920" cy="320" r="14" fill="#7DD3FC" opacity="0.7"/>
  <circle cx="1000" cy="380" r="18" fill="#38BDF8" opacity="0.7"/>
  <circle cx="890" cy="440" r="15" fill="#0EA5E9" opacity="0.7"/>
  <line x1="950" y1="200" x2="1030" y2="260" stroke="#0369A1" stroke-width="2" opacity="0.5"/>
  <line x1="950" y1="200" x2="920" y2="320" stroke="#0369A1" stroke-width="2" opacity="0.5"/>
  <line x1="1030" y1="260" x2="920" y2="320" stroke="#0369A1" stroke-width="2" opacity="0.5"/>
  <line x1="1030" y1="260" x2="1000" y2="380" stroke="#0369A1" stroke-width="2" opacity="0.5"/>
  <line x1="920" y1="320" x2="1000" y2="380" stroke="#0369A1" stroke-width="2" opacity="0.5"/>
  <line x1="920" y1="320" x2="890" y2="440" stroke="#0369A1" stroke-width="2" opacity="0.5"/>
  <line x1="1000" y1="380" x2="890" y2="440" stroke="#0369A1" stroke-width="2" opacity="0.5"/>
  <text x="600" y="300" font-family="-apple-system, BlinkMacSystemFont, 'Segoe UI', Roboto, Helvetica, Arial, sans-serif" font-size="100" font-weight="bold" fill="#1E293B" text-anchor="middle">Te<tspan baseline-shift="-10%" font-size="70%">­Ъќљ№ИЈ</tspan>AI.io</text>
  <text x="600" y="365" font-family="-apple-system, BlinkMacSystemFont, 'Segoe UI', Roboto, Helvetica, Arial, sans-serif" font-size="36" fill="#475569" text-anchor="middle">Уф░сЂДсѓѓжќІуЎ║сЂДсЂЇсѓІсѓ»сЃЕсѓдсЃЅсЃЌсЃЕсЃЃсЃѕсЃЋсѓЕсЃ╝сЃа</text>
</svg> 