<svg width="1200" height="630" viewBox="0 0 1200 630" fill="none" xmlns="http://www.w3.org/2000/svg">
  <!-- Top Section -->
  <rect width="1200" height="200" fill="#FFFFFF"/>
  <text x="600" y="110" font-family="-apple-system, BlinkMacSystemFont, 'Segoe UI', Roboto, Helvetica, Arial, sans-serif" font-size="80" font-weight="bold" fill="#1E293B" text-anchor="middle">Te<tspan baseline-shift="-8%" font-size="60%">­Ъќљ№ИЈ</tspan>AI.io</text>
  <text x="600" y="160" font-family="-apple-system, BlinkMacSystemFont, 'Segoe UI', Roboto, Helvetica, Arial, sans-serif" font-size="28" fill="#64748B" text-anchor="middle">Уф░сЂДсѓѓжќІуЎ║сЂДсЂЇсѓІсѓ»сЃЕсѓдсЃЅсЃЌсЃЕсЃЃсЃѕсЃЋсѓЕсЃ╝сЃа</text>
  <!-- Bottom Section -->
  <defs>
    <linearGradient id="ogpGrad3" x1="0%" y1="0%" x2="0%" y2="100%">
      <stop offset="0%" style="stop-color:#38BDF8; stop-opacity:1" />
      <stop offset="100%" style="stop-color:#0EA5E9; stop-opacity:1" />
    </linearGradient>
  </defs>
  <rect y="200" width="1200" height="430" fill="url(#ogpGrad3)"/>
  <!-- Icons at Bottom Right -->
  <g transform="translate(950, 480) scale(1.5)">
    <!-- Cloud Icon -->
    <path d="M18.8,85.1h56l-6.5,8.7h-43L18.8,85.1z M30.8,76.4h33.7l-6.5,8.7H37.3L30.8,76.4z M62.7,102.5H10.8 c-4.6,0-8.3-3.7-8.3-8.3V47.6c0-4.6,3.7-8.3,8.3-8.3h5.1c0.9-11.4,10.7-20.2,22.5-20.2c10.1,0,18.6,6.6,21.5,15.7 c2.8-1.8,6-2.8,9.4-2.8c11.7,0,21.1,9.5,21.1,21.1c0,1.7-0.2,3.3-0.6,4.9h0.6c4.6,0,8.3,3.7,8.3,8.3v17.8 C91,98.8,87.3,102.5,82.7,102.5H62.7z" fill="#FFFFFF" opacity="0.8"/>
    <!-- Code Icon -->
    <path d="M9.4,16.6 L4.8,12l4.6-4.6L8,6l-6,6l6,6L9.4,16.6z M14.6,16.6l4.6-4.6l-4.6-4.6L16,6l6,6l-6,6L14.6,16.6z" fill="#FFFFFF" opacity="0.8" transform="translate(50, -10) scale(1.2)"/>
   </g>
</svg> 